<?xml version="1.0" encoding="utf-8"?>
<!-- Generator: Adobe Illustrator 24.1.3, SVG Export Plug-In . SVG Version: 6.00 Build 0)  -->
<svg version="1.1" id="Layer_1" xmlns="http://www.w3.org/2000/svg" xmlns:xlink="http://www.w3.org/1999/xlink" x="0px" y="0px"
	 viewBox="0 0 725.1 685.3" style="enable-background:new 0 0 725.1 685.3;" xml:space="preserve">
<style type="text/css">
	.st0{fill:#16111B;}
	.st1{fill:#B84B43;}
	.st2{fill:#3E1811;}
	.st3{fill:#070405;}
	.st4{fill:#FFDF73;}
	.st5{fill:#A03E3C;}
	.st6{fill:#FFFFFF;}
	.st7{fill:#664327;}
	.st8{fill:#7D3234;}
	.st9{fill:#BA4E4A;}
	.st10{fill:#FCCB6E;}
	.st11{fill:#2A2116;}
	.st12{fill:#20090C;}
	.st13{fill:#23161A;}
	.st14{fill:#592121;}
	.st15{fill:#6B542F;}
</style>
<g id="Layer_2_1_">
	<ellipse class="st0" cx="345" cy="596.5" rx="203.7" ry="71.3"/>
</g>
<g id="bassjente">
	<polygon class="st1" points="384.5,224.8 406.6,172.6 368.9,159 343.5,169.2 343.5,182.2 338.7,187.7 341.4,194.1 346.2,215.2 	"/>
	<path class="st2" d="M432.3,230.7L541.8,70.5c0,0-17.4-34.6-38.8-38.6c-18.5-3.5-42.7,20.4-29.9,54.5
		c-28.2,46.5-72.9,137.3-72.9,137.3s-72.9-24.6-113.9,10.1c-23.2,19.7-32.2,42.2-54.4,93.3c-1.2,2.8,59.9,37.1,26.1,107.2
		c-14.3,29.5-66,34.1-66,34.1l30.6,66.4c0,0,109.3,98.1,211,24.4c0,0,29-7.9,69.3-64.1c-29.9,0-66-24.5-42.8-68l66.6-98
		C526.9,329,481.3,246.3,432.3,230.7z"/>
	<polygon class="st3" points="514.5,101.2 530.5,104.3 518.2,121.7 505.9,112.5 	"/>
	<polygon class="st3" points="530.7,79.4 547.7,82.7 534.6,101.2 521.5,91.5 	"/>
	<polygon class="st3" points="316,447.4 355,449.1 353.8,453.9 314.7,451.6 	"/>
	<path class="st4" d="M324.3,468.5c-3.3-37.5,22-112.5,75.1-222.9c39.5-82.2,80.5-154.3,80.9-155l1.9,1.1
		c-1.6,2.9-163.4,288.2-155.7,376.7L324.3,468.5z"/>
	<path class="st4" d="M332.3,468.4c-4.3-58.4,39.4-156.9,76.9-229.1c40.5-78.3,82.6-143.6,83.1-144.2l1.9,1.2
		c-0.4,0.6-42.5,65.9-83,144.1c-53.5,103.3-80,182.1-76.7,228H332.3z"/>
	<path class="st4" d="M340.3,468.5c-6.3-60.6,38.6-158.4,77.4-229.8c42-77.3,86.1-141.1,86.5-141.8l1.8,1.3
		c-0.4,0.6-44.4,64.4-86.4,141.6c-55.4,102-82.1,181-77.1,228.5L340.3,468.5z"/>
	<path class="st1" d="M494.5,155.2l-3.1,13c0,0-27.7-12.9-36.1,10.9l-3.7-5.1c0,0,10.1-19,27.8-13.4c-7-4.2-17.1-3.3-24.1,0
		l-0.9-8.4c0,0,16.2-5.1,26.8,3.6c-5.1-4.7-11.1-8.5-17.6-11.2l4.8-7.9l15.7,12.8l-3.3-21.2l7.7,1.8L494.5,155.2z"/>
	<path class="st3" d="M351.8,467.2l-37.1-2.4c0,0,18.2,92.9,22.2,108.2c3.7,0.7,7.6,0.6,11.3-0.2L351.8,467.2z"/>
	<path class="st5" d="M318.9,380.3c0,0,14-1.8,15.7-13.1l7,0.2c0,0-0.4,16.9-15.5,20.4c2.2,0,10.2,1,10.2,1v8l-12.6-3.2l6.6,8.2
		l-1,1h-2l-2,0.7l-6.4-10.2l-2.3,11.3l-13.8-4.1l-1.9-6.4l11.6,3.7l1-6.4L318.9,380.3z"/>
	<path class="st6" d="M313.4,391.5l-52.2-44.6l-6.2-52.4l20.3-44.1c7.1-15.3,20-27.2,35.9-32.8l5.3-1.9l-40.4,86.5l42.8,78.1
		L313.4,391.5z"/>
	<path class="st7" d="M368.9,159c0,0,5.4,23.1,29.7,32.6l-12,28.4l13.7,3.7l6.4-51.1c0,0-65.7-55.6-86.1-38.3s1.7,39.4,1.4,59.2
		s-24.9,44.7-24.9,44.7l-9.9,55.7l22.6-20.6l34.5-11.4l4.3-37.1c-0.3-4.7-2.1-26.1-8.6-38.4l-1.3,1.2L368.9,159z"/>
	<polygon class="st8" points="398.5,191.6 379,218.4 386.5,220 	"/>
	<path class="st2" d="M473.1,86.5c0,0,19.2,26.7,48.4,5c-1.4-14.4-11.2-13.8-11.2-13.8L473.1,86.5z"/>
</g>
<g id="fing1">
	<path class="st5" d="M336.2,388.9l19,3l1,10l-21.1-5.2c-2-0.4-3.4-2.3-3-4.4c0-0.1,0.1-0.3,0.1-0.4
		C333.2,387.9,336.2,388.9,336.2,388.9z"/>
</g>
<g id="fing2">
	<path class="st5" d="M325.2,403.9l-3,12l7-2l1-12c-0.5-1.1-1.8-1.6-2.9-1h-0.1C326,401.5,325.3,402.6,325.2,403.9z"/>
</g>
<g id="trumpetmann">
	<path class="st9" d="M286.3,233.8l12-78.8c0,0,2.3-48.3-40.7-48.9c-41.6,13.1-41.7,11.6-41.7,11.6l-4.4,28.5l-8.2,18.1l8.2,7.1
		l-6,19.1l-10.4,14.2L286.3,233.8z"/>
	<polygon class="st6" points="65.2,259.4 56.4,276.2 90.4,286.1 90.4,265.6 	"/>
	<path class="st3" d="M141.3,187.7l221.5,70.4c0,0-260.5,61.1-95.6,342.8c-6.5,7.7-13,9-13,9s-6,4-9,2c-5,1-9.3-5.4-9.3-5.4
		l-10-15.8c0,0-22.2,6.8-32.7,5.3c6.4-6.7,14.7-16.9,14.7-16.9S62.7,418.2,141.3,187.7z"/>
	<polygon class="st6" points="266,227.4 197.8,294.5 208.6,209.1 	"/>
	<path class="st3" d="M125.6,344.2H44.9c0,0-0.9-51.5,11.4-68c23.8,4.8,43.3,7.2,43.3,7.2L97.2,299h26L125.6,344.2z"/>
	<circle class="st10" cx="206" cy="191.6" r="6.5"/>
	<path class="st4" d="M206,199.2c-4.2,0-7.6-3.4-7.6-7.6s3.4-7.6,7.6-7.6s7.6,3.4,7.6,7.6l0,0C213.7,195.8,210.3,199.2,206,199.2z
		 M206,186.2c-3,0-5.4,2.4-5.4,5.4s2.4,5.4,5.4,5.4s5.4-2.4,5.4-5.4C211.4,188.6,209,186.2,206,186.2
		C206.1,186.2,206.1,186.2,206,186.2L206,186.2z"/>
	<path class="st10" d="M204.5,196.9l-11,12.8c3.8,7.9,0.6,19,0.5,19.5l-0.1,0.3l-0.2,0.3c-0.4,0.5-36.9,47.8-50.5,65.1
		c-3.3,4.2-6.2,6.3-8.7,6.3c-0.5,0-1.1-0.1-1.6-0.3c-5.7-2.1-5.5-15.9-5.4-18.6v-0.6l61.8-72.4c-0.3-0.4-0.6-0.7-0.9-1.1
		c-3.6-3.5-10-4-19-1.3c-17.1,21.1-61,78.6-61.4,79.2l-2.7-2c0.5-0.6,44.9-58.9,61.8-79.7l0.3-0.4l0.5-0.1c10.6-3.2,18.3-2.6,22.8,2
		c0.3,0.3,0.6,0.6,0.8,0.9l10.2-11.9 M130.9,283.1c-0.2,6.6,1,14,3.2,14.8c0.5,0.2,2.3,0.3,6.5-4.9c13-16.7,47.3-61,50.2-64.9
		c0.4-1.6,2.2-9.5,0.2-15.5L130.9,283.1z"/>
	<path class="st4" d="M134.6,302.4c-0.7,0-1.3-0.1-1.9-0.4c-6.3-2.3-6.3-15.7-6.1-19.7v-1l61.4-72l-0.3-0.3
		c-3.2-3.2-9.1-3.5-17.6-1.1c-16.4,20.3-56.5,72.9-61.1,78.8l-0.8,1l-4.4-3.4l0.7-0.9c0.4-0.6,45-58.9,61.8-79.7l0.5-0.7l0.8-0.3
		c11-3.3,19-2.6,23.9,2.2l9.4-11l1.7,1.5l-11.1,12.9l-0.8-1c-0.2-0.3-0.5-0.5-0.7-0.8c-4.3-4.2-11.6-4.8-21.7-1.7h-0.2l-0.1,0.1
		c-15.7,19.3-55.4,71.3-61.1,78.8l0.9,0.7c6.8-8.8,45-58.9,60.7-78.3l0.2-0.3l0.3-0.1c9.5-2.8,16.2-2.3,20.1,1.5
		c0.4,0.4,0.7,0.8,1,1.2l0.5,0.7l-62.1,72.8v0.2c-0.2,5.8,0.5,16,4.7,17.5c0.4,0.1,0.8,0.2,1.2,0.2c2.1,0,4.8-2,7.8-5.9
		c13.5-17.3,50.1-64.7,50.4-65.1l0.1-0.2c0.1-0.5,3.2-11.2-0.4-18.8l-0.3-0.7l11.5-13.4l1.7,1.5l-10.4,12.3
		c3.5,8.3,0.4,19.2,0.2,19.7l-0.1,0.5l-0.3,0.4c-0.4,0.5-37,47.9-50.5,65.1C140.6,300.2,137.5,302.4,134.6,302.4z M134.6,299.1
		c-0.3,0-0.5,0-0.8-0.1c-4.3-1.6-4-15.3-4-15.9v-0.4l0.3-0.3l61.4-72l0.6,1.9c2.1,6.3,0.2,14.5-0.2,16.1v0.2l-0.1,0.2
		c-0.4,0.5-36.7,47.5-50.2,64.9C138.1,297.9,135.9,299,134.6,299.1L134.6,299.1z M132.1,283.5c-0.1,7.5,1.4,12.9,2.5,13.3
		c0,0,1.5,0.1,5.2-4.6c13.2-16.9,47.6-61.4,50.1-64.7c0.4-1.7,1.7-7.5,0.7-12.6L132.1,283.5z"/>
	
		<rect x="143.9" y="238.5" transform="matrix(0.6929 -0.721 0.721 0.6929 -143.444 185.0752)" class="st10" width="3.3" height="44.9"/>
	<path class="st4" d="M160.6,279.3l-34-32.6l3.9-4l34,32.6L160.6,279.3z M129.8,246.6l30.7,29.5l0.8-0.8l-30.8-29.6L129.8,246.6z"/>
	
		<rect x="153.4" y="226.4" transform="matrix(0.6929 -0.721 0.721 0.6929 -131.7862 188.213)" class="st10" width="3.3" height="44.9"/>
	<path class="st4" d="M170.1,267.2l-34-32.6l3.9-4l34,32.6L170.1,267.2z M139.3,234.5L170,264l0.8-0.8l-30.7-29.5L139.3,234.5z"/>
	
		<rect x="162.8" y="214.2" transform="matrix(0.6929 -0.721 0.721 0.6929 -120.1589 191.2467)" class="st10" width="3.3" height="44.9"/>
	<path class="st4" d="M179.6,255.1l-34-32.6l3.9-4l34,32.6L179.6,255.1z M148.8,222.4l30.7,29.5l0.8-0.8l-30.7-29.5L148.8,222.4z"/>
	<circle class="st10" cx="90.4" cy="306.5" r="35"/>
	<path class="st4" d="M90.4,342.5c-19.9,0-36.1-16.1-36.1-36.1s16.1-36.1,36.1-36.1c19.9,0,36.1,16.1,36.1,36.1
		S110.3,342.5,90.4,342.5z M90.4,272.6c-18.7,0-33.8,15.2-33.8,33.8s15.2,33.8,33.8,33.8c18.7,0,33.8-15.2,33.8-33.8
		C124.2,287.8,109.1,272.7,90.4,272.6z"/>
	<circle class="st11" cx="95.6" cy="303.5" r="17.4"/>
	<path class="st1" d="M112.4,201.4l-20.7,20.7l-2.5,0.8l0,0l-2.3,2.2c0,0-17,25.4-21.6,34.3l25.2,6.3v-10.4c0,0,11,10,22,7.7
		l-1.1-5.3c0,0-15.9-0.3-14-13.5s20.3-8.6,20.6-1.7l6-2.5c0,0-1.9-11.1-15.4-10.1c14.7-5.4,19.8-7.5,19.8-7.5v-8.1l-31.5,11.1
		l23.8-19.2L112.4,201.4z"/>
	<path class="st5" d="M196,246.9c0,0-26.1-21.6-50.9-14.9l-0.8,6.9l18.3-0.1l-13.8,9.8l0.3,7.2l18.5-8.3l-13,15.5l5.8,3.9l8.3-12.7
		l-1.9,16l4.7,1.4l1.1-18.5l13.8,9.1L196,246.9z"/>
	<path class="st12" d="M215.9,117.8l41.6-13.1c44.4-2.1,42.7,49.8,42.7,49.8l-3.2,18.2h-29.4l8.6-40.3L215.9,117.8"/>
	<polygon class="st8" points="267.6,172.6 258,224.8 286.3,233.8 297,172.6 	"/>
	<polygon class="st6" points="170.1,284.2 197.8,294.5 212.6,261 195.6,246.3 	"/>
	<path class="st13" d="M286.3,233.8c0,0-13.7,22.5-26.1,28.6c-12.4,6.1-51.3,18-60.6,28.2c4.5-10.3,58.5-65.8,58.5-65.8L286.3,233.8
		z"/>
	<path class="st13" d="M212.6,261L181,332.7l137.8,47.6l44-122.2c0,0-46.1,10.7-86.8,43.9c-1.8,22-2.4,20.5-2.4,20.5L212.6,261z"/>
	<path class="st3" d="M203.7,233c8.4,2.4,12.6-3.6,16-6.3c0.6,1.5,2.4,2.2,3.9,1.6c0.1,0,0.2-0.1,0.3-0.1
		c0.9,4.2,3.7,12.6,11.8,16.2c6,2.7,10.4-31.6,10.4-31.6c-9-2.5-17.1,6-20.1,8.4c-0.4-0.6-0.9-1-1.5-1.2s-1.3-0.2-1.9,0
		c-0.7-3.8-5.5-7.1-14-10.9C208.6,209.1,197.4,231.2,203.7,233z"/>
</g>
<g id="fingtrumpet">
	<path class="st1" d="M87.2,224.9l-11-15l8-5l7,17c0,0,1,3-1,4C89.1,226.5,87.8,226.1,87.2,224.9C87.2,225,87.2,224.9,87.2,224.9z"
		/>
</g>
<g id="fot">
	<path class="st3" d="M236.2,606.9l-13,22c0,0,8,5,46-11c-1-11-2-17-2-17L236.2,606.9"/>
</g>
<g id="saxmann">
	<polygon class="st3" points="589.8,351.7 633.1,383.8 605.9,421.2 558.4,371.4 	"/>
	<polygon class="st14" points="642.4,395.9 627.5,419.4 636.5,422.1 648.9,403 	"/>
	<path class="st3" d="M663.1,332L519.2,212.8c0,0-143,12.4-112.7,381.7l0.3,16.9c0,0,35,10.8,46.2,6.4c-6.9-9.2-14.3-20.8-14.3-20.8
		l-0.6-16.2c0,0,31.9,4.4,42.3,2c-1-8.4-22.3-19.8-22.3-19.8S392.5,432.9,663.1,332z"/>
	<path class="st13" d="M519.2,212.8c0,0-89.2,6-119,90.1c46.8,66.3,104.4,142.2,104.4,142.2l41.5-43.1l-66.2-88.3L519.2,212.8z"/>
	<path class="st9" d="M572.5,256.9l62.2-17.4c0,0,29.7-11.4,50.2,17.4c12.4,30.5,10.3,25.8,10.3,25.8l-22.3,27.9l-22-18.7
		l-13.1,24.5l-11.1-11.2L597.2,324L572.5,256.9z"/>
	<path class="st12" d="M650.8,291.9l23.1,22.7l29.3-30.7l-12.4-30.5c0,0-15-29.5-56.5-20.3l-16.4,6.3l1.2,14.2l23.5-7.7l11.2,33
		L650.8,291.9z"/>
	<polygon class="st6" points="546,402 560.2,416.7 533.2,452 520.4,428.7 	"/>
	<path class="st10" d="M624.1,385.6L511,520.6c0,0-20.4,25.8,4,46.4s57.4-5,57.4-5l62.5-42.1l-28.5-51.6l-66.5,79.3l-0.6-3
		l40.6-53.9l71.8-104.2c0,0,71.7-48.8,8.1-46.4C638.9,340.9,619,310,619,310l-2.4,1.5l24.9,47.6l32.3-7.2L624.1,385.6z"/>
	<path class="st4" d="M537,576c-8.3,0.1-16.4-2.8-22.8-8.2c-25-21-4.4-47.6-4.2-47.9l113.2-135.1l0.1-0.1l44.8-30.2l-27.4,6.1
		L615,311.3l4.2-2.7l0.6,0.9c0.2,0.3,19.3,29.6,39,29.6h0.8c16.3-0.6,25.1,2,27.1,7.9c4.4,13.4-31.2,38.2-34.3,40.4l-71.6,104.1
		l-40.4,53.6v0.2l66-78.8l29.8,53.9L573,563C572.8,563.1,555.8,576,537,576z M624.8,386.4l-113,134.9c-0.8,1-19.4,25.2,3.9,44.8
		c6,5.1,13.6,7.8,21.4,7.7c17.9,0,34.4-12.5,34.6-12.7l61.7-41.5l-27.3-49.2l-66.9,79.9l-1.2-5.7l40.9-54.3l71.8-104.4l0.2-0.1
		c10.5-7.1,37-27.9,33.6-37.9c-1.6-4.8-10.2-7-24.8-6.4c-19.5,0.8-37.6-24.4-41.2-29.7l-0.6,0.4l24,46l37.2-8.3L624.8,386.4z"/>
	<polygon class="st15" points="539.8,547.7 530.2,542.1 588.1,478.8 585.9,493.2 	"/>
	<path class="st4" d="M540,549.2l-11.6-6.7l61.3-67.1l-2.8,18.4l-0.2,0.2L540,549.2z M532,541.9l7.6,4.4l45.3-53.5l1.6-10.5
		L532,541.9z"/>
	<path class="st1" d="M537.7,446.1l-10.9,40.3l10.1,7.3l7-36.9l6.9,38.2l10-4.7l-6.9-38.9l13.9,27.6l8.2-6.2l-16.6-28.6
		c0,0,9.8-4.8,20.3,8.1l3.8-6.9l-23.2-28.8L537.7,446.1z"/>
	<polygon class="st1" points="652.7,397.9 640.9,385.4 634.9,394.3 647.3,401.6 643.1,407.4 631.9,401.2 626.5,408.8 638.7,413.5 
		636.2,418.6 624.4,413.8 620.8,421.8 632,423.7 619.1,433.7 625.3,439.1 636.5,425.8 640.1,424.4 653.6,408.2 	"/>
	<polygon class="st8" points="619.1,253.7 583.4,286.7 572.5,256.9 617.9,239.5 	"/>
	<circle class="st15" cx="538.4" cy="566.4" r="9.8"/>
	<circle class="st15" cx="565.1" cy="555.2" r="10.5"/>
	<circle class="st15" cx="591.7" cy="534.8" r="12.2"/>
	<circle class="st10" cx="541.8" cy="568" r="8.8"/>
	<path class="st4" d="M541.8,578c-5.5,0-10-4.5-10-10s4.5-10,10-10s10,4.5,10,10S547.3,578,541.8,578z M541.8,560.3
		c-4.3,0-7.7,3.5-7.8,7.7s3.5,7.7,7.7,7.8s7.7-3.5,7.8-7.7l0,0C549.5,563.7,546.1,560.3,541.8,560.3z"/>
	<circle class="st10" cx="568.8" cy="556.1" r="10.4"/>
	<path class="st4" d="M568.8,567.6c-6.3,0-11.5-5.1-11.5-11.5s5.1-11.5,11.5-11.5s11.5,5.1,11.5,11.5l0,0
		C580.3,562.5,575.2,567.6,568.8,567.6z M568.8,546.9c-5.1,0-9.3,4.1-9.3,9.3s4.1,9.3,9.3,9.3s9.3-4.1,9.3-9.3
		C578,551,573.9,546.9,568.8,546.9L568.8,546.9z"/>
	<circle class="st10" cx="595.4" cy="535.7" r="12.1"/>
	<path class="st4" d="M595.4,548.8c-7.3,0-13.2-5.9-13.2-13.2s5.9-13.2,13.2-13.2c7.3,0,13.2,5.9,13.2,13.2l0,0
		C608.6,542.9,602.7,548.8,595.4,548.8z M595.4,524.7c-6,0-10.9,4.9-10.9,10.9s4.9,10.9,10.9,10.9s10.9-4.9,10.9-10.9l0,0
		C606.3,529.6,601.4,524.8,595.4,524.7z"/>
	<polygon class="st15" points="607.5,468.4 624.7,528.1 634.3,521.6 	"/>
	<polygon class="st10" points="610.1,459.1 655.4,521.3 638.2,537.7 604.2,465.1 	"/>
	<path class="st4" d="M637.8,539.6l-34.9-74.7l7.3-7.5l46.7,64.1L637.8,539.6z M605.6,465.3l33,70.5l15.4-14.6l-44-60.4L605.6,465.3
		z"/>
	<path class="st13" d="M572.5,256.9c0,0-33.9,10.9-39.5,38.5s-6.6,56.3-12.6,72.4c17.4-21.3,63-81.2,63-81.2L572.5,256.9z"/>
	<polygon class="st6" points="597.1,324.1 520.4,367.9 583.4,286.7 	"/>
	<path class="st3" d="M561,325.6c7.2,3.2,12.5,3.5,16.1,1.1c0.1,0.8,0.5,1.5,1.2,1.9s1.6,0.4,2.3,0c-0.1,4.4-8.1,7.2-1.5,11.6
		c4.9,3.3,18-16.1,18-16.1c-7.7-3.5-9.7-4.6-13-2.4c-0.2-0.6-0.6-1.1-1.1-1.4s-1.1-0.4-1.7-0.2c0.2-4,3.6-19-3.4-23.7
		C577.8,296.4,555.5,323.2,561,325.6z"/>
</g>
<g id="lugg">
	<polygon class="st12" points="651.2,291.9 674.2,314.9 703.2,283.9 691.2,266.9 	"/>
</g>
</svg>
